<svg xmlns="http://www.w3.org/2000/svg" xmlns:xlink="http://www.w3.org/1999/xlink" width="128" zoomAndPan="magnify" viewBox="0 0 96 95.999999" height="128" preserveAspectRatio="xMidYMid meet" version="1.0"><defs><clipPath id="908e5f7ca6"><path d="M 8 13 L 88.242188 13 L 88.242188 83.292969 L 8 83.292969 Z M 8 13 " clip-rule="nonzero"/></clipPath></defs><g clip-path="url(#908e5f7ca6)"><path fill="#000000" d="M 87.367188 22.972656 L 48.492188 13.144531 C 48.269531 13.089844 48.046875 13.089844 47.828125 13.144531 L 8.949219 22.972656 C 8.675781 23.070312 8.457031 23.238281 8.289062 23.476562 C 8.121094 23.71875 8.035156 23.980469 8.035156 24.273438 C 8.035156 24.566406 8.121094 24.832031 8.289062 25.070312 C 8.457031 25.308594 8.675781 25.476562 8.949219 25.578125 L 22.515625 29 L 22.515625 50.59375 L 21.195312 50.332031 C 20.941406 50.269531 20.6875 50.28125 20.4375 50.363281 C 20.1875 50.445312 19.976562 50.585938 19.808594 50.789062 C 19.375 51.335938 18.988281 51.914062 18.652344 52.527344 C 18.3125 53.136719 18.03125 53.773438 17.800781 54.433594 C 17.570312 55.09375 17.398438 55.765625 17.28125 56.457031 C 17.164062 57.144531 17.105469 57.835938 17.105469 58.535156 C 17.105469 59.234375 17.164062 59.925781 17.28125 60.617188 C 17.398438 61.304688 17.570312 61.976562 17.800781 62.636719 C 18.03125 63.296875 18.3125 63.933594 18.652344 64.542969 C 18.988281 65.15625 19.375 65.734375 19.808594 66.285156 C 20.082031 66.59375 20.421875 66.75 20.835938 66.753906 L 21.058594 66.753906 C 27.355469 65.746094 33.691406 65.113281 40.066406 64.855469 L 35.398438 76.984375 C 35.332031 77.242188 35.335938 77.5 35.414062 77.757812 C 35.496094 78.011719 35.636719 78.226562 35.84375 78.402344 C 36.046875 78.574219 36.285156 78.679688 36.550781 78.714844 C 36.816406 78.753906 37.070312 78.714844 37.316406 78.605469 L 41.316406 76.304688 L 44.675781 82.402344 C 44.9375 82.855469 45.332031 83.085938 45.855469 83.09375 L 46.132812 83.09375 C 46.417969 83.027344 46.65625 82.882812 46.847656 82.664062 C 47.042969 82.445312 47.15625 82.191406 47.1875 81.902344 L 48.117188 71.925781 L 49.046875 81.902344 C 49.082031 82.191406 49.195312 82.445312 49.386719 82.664062 C 49.582031 82.882812 49.820312 83.027344 50.101562 83.09375 L 50.382812 83.09375 C 50.898438 83.082031 51.289062 82.851562 51.546875 82.402344 L 54.921875 76.304688 L 58.917969 78.605469 C 59.167969 78.71875 59.425781 78.757812 59.695312 78.71875 C 59.964844 78.683594 60.203125 78.574219 60.410156 78.398438 C 60.617188 78.21875 60.757812 78 60.835938 77.738281 C 60.914062 77.476562 60.914062 77.214844 60.835938 76.957031 L 56.183594 64.871094 C 62.488281 65.136719 68.761719 65.75 74.996094 66.714844 L 75.207031 66.714844 C 75.59375 66.710938 75.921875 66.574219 76.191406 66.296875 C 77.125 65.242188 77.84375 64.054688 78.347656 62.738281 C 78.847656 61.417969 79.101562 60.054688 79.105469 58.648438 C 79.128906 57.1875 78.890625 55.773438 78.390625 54.402344 C 77.890625 53.03125 77.160156 51.792969 76.207031 50.691406 C 75.851562 50.324219 75.425781 50.1875 74.929688 50.289062 L 73.804688 50.511719 L 73.804688 29 L 81.066406 27.171875 L 81.441406 27.171875 L 81.441406 33.519531 L 80.703125 33.519531 C 80.535156 33.515625 80.367188 33.546875 80.207031 33.605469 C 80.046875 33.664062 79.90625 33.75 79.777344 33.863281 C 79.648438 33.976562 79.542969 34.109375 79.464844 34.257812 C 79.386719 34.410156 79.335938 34.570312 79.316406 34.738281 L 78.191406 45.824219 C 78.160156 46.21875 78.277344 46.558594 78.539062 46.851562 C 78.800781 47.15625 79.136719 47.304688 79.539062 47.296875 L 85.925781 47.296875 C 86.117188 47.296875 86.300781 47.257812 86.476562 47.183594 C 86.652344 47.105469 86.804688 47 86.9375 46.859375 C 87.066406 46.722656 87.167969 46.5625 87.230469 46.382812 C 87.296875 46.203125 87.324219 46.015625 87.3125 45.824219 L 86.1875 34.738281 C 86.167969 34.570312 86.117188 34.410156 86.039062 34.257812 C 85.957031 34.109375 85.855469 33.976562 85.726562 33.863281 C 85.597656 33.75 85.453125 33.664062 85.296875 33.605469 C 85.136719 33.546875 84.96875 33.515625 84.800781 33.519531 L 84.078125 33.519531 L 84.078125 26.410156 L 87.367188 25.578125 C 87.644531 25.476562 87.863281 25.308594 88.03125 25.070312 C 88.199219 24.832031 88.28125 24.566406 88.28125 24.273438 C 88.28125 23.980469 88.199219 23.71875 88.03125 23.476562 C 87.863281 23.238281 87.644531 23.070312 87.367188 22.972656 Z M 42.355469 62.097656 C 35.34375 62.28125 28.367188 62.902344 21.433594 63.96875 C 20.335938 62.324219 19.796875 60.511719 19.808594 58.535156 C 19.804688 56.570312 20.335938 54.765625 21.40625 53.117188 L 23.613281 53.546875 L 23.875 53.546875 C 29.988281 54.613281 36.140625 55.238281 42.34375 55.417969 Z M 74.679688 53.117188 C 75.25 53.90625 75.6875 54.765625 75.984375 55.695312 C 76.285156 56.621094 76.4375 57.574219 76.4375 58.550781 C 76.4375 59.523438 76.285156 60.476562 75.984375 61.40625 C 75.6875 62.332031 75.25 63.191406 74.679688 63.984375 C 67.886719 62.96875 61.0625 62.351562 54.199219 62.140625 L 53.894531 62.140625 L 53.894531 55.445312 C 60.199219 55.25 66.457031 54.597656 72.664062 53.492188 C 73.34375 53.378906 74.011719 53.253906 74.679688 53.117188 Z M 80.785156 24.46875 L 48.1875 22.929688 C 47.980469 22.867188 47.769531 22.855469 47.558594 22.890625 C 47.34375 22.925781 47.148438 23.007812 46.976562 23.136719 C 46.800781 23.261719 46.664062 23.421875 46.5625 23.613281 C 46.460938 23.804688 46.40625 24.007812 46.402344 24.222656 C 46.398438 24.4375 46.4375 24.644531 46.53125 24.839844 C 46.621094 25.035156 46.75 25.199219 46.917969 25.335938 C 47.085938 25.472656 47.277344 25.5625 47.488281 25.609375 C 47.699219 25.65625 47.90625 25.65625 48.117188 25.605469 L 71.886719 26.726562 L 48.117188 32.714844 L 24.042969 26.644531 L 14.671875 24.273438 L 48.117188 15.832031 L 81.566406 24.273438 Z M 80.785156 24.46875 " fill-opacity="1" fill-rule="nonzero"/></g></svg>